<mxfile host="app.diagrams.net" modified="2024-06-28T16:34:51.201Z" agent="Mozilla/5.0 (Windows NT 10.0; Win64; x64) AppleWebKit/537.36 (KHTML, like Gecko) Chrome/123.0.0.0 Safari/537.36 OPR/109.0.0.0" etag="qHu9hVtGAQlz8QlNLJlH" version="24.6.4" type="device">
  <diagram name="Página-1" id="LhBxX4Nl7KvffzzyWXzM">
    <mxGraphModel dx="751" dy="1106" grid="1" gridSize="10" guides="1" tooltips="1" connect="1" arrows="1" fold="1" page="1" pageScale="1" pageWidth="827" pageHeight="1169" math="0" shadow="0">
      <root>
        <mxCell id="0" />
        <mxCell id="1" parent="0" />
        <mxCell id="zHZ-9GJpxGuvPAWi-_o6-1" value="" style="rounded=0;whiteSpace=wrap;html=1;" vertex="1" parent="1">
          <mxGeometry x="80" y="80" width="440" height="540" as="geometry" />
        </mxCell>
        <mxCell id="zHZ-9GJpxGuvPAWi-_o6-2" value="Windows 11Pro 23H2" style="text;html=1;align=left;verticalAlign=middle;whiteSpace=wrap;rounded=0;" vertex="1" parent="1">
          <mxGeometry x="80" y="50" width="140" height="30" as="geometry" />
        </mxCell>
        <mxCell id="zHZ-9GJpxGuvPAWi-_o6-3" value="" style="rounded=0;whiteSpace=wrap;html=1;" vertex="1" parent="1">
          <mxGeometry x="100" y="140" width="400" height="450" as="geometry" />
        </mxCell>
        <mxCell id="zHZ-9GJpxGuvPAWi-_o6-4" value="WSL-Ubuntu-22.04" style="text;html=1;align=center;verticalAlign=middle;whiteSpace=wrap;rounded=0;" vertex="1" parent="1">
          <mxGeometry x="80" y="80" width="160" height="30" as="geometry" />
        </mxCell>
        <mxCell id="zHZ-9GJpxGuvPAWi-_o6-6" value="" style="rounded=0;whiteSpace=wrap;html=1;" vertex="1" parent="1">
          <mxGeometry x="160" y="210" width="120" height="180" as="geometry" />
        </mxCell>
        <mxCell id="zHZ-9GJpxGuvPAWi-_o6-7" value="Docker" style="text;html=1;align=center;verticalAlign=middle;whiteSpace=wrap;rounded=0;" vertex="1" parent="1">
          <mxGeometry x="110" y="110" width="60" height="30" as="geometry" />
        </mxCell>
        <mxCell id="zHZ-9GJpxGuvPAWi-_o6-8" value="DB" style="shape=cylinder3;whiteSpace=wrap;html=1;boundedLbl=1;backgroundOutline=1;size=15;" vertex="1" parent="1">
          <mxGeometry x="190" y="275" width="60" height="80" as="geometry" />
        </mxCell>
        <mxCell id="zHZ-9GJpxGuvPAWi-_o6-9" value="DB" style="text;html=1;align=center;verticalAlign=middle;whiteSpace=wrap;rounded=0;" vertex="1" parent="1">
          <mxGeometry x="160" y="180" width="60" height="30" as="geometry" />
        </mxCell>
        <mxCell id="zHZ-9GJpxGuvPAWi-_o6-10" style="edgeStyle=orthogonalEdgeStyle;rounded=0;orthogonalLoop=1;jettySize=auto;html=1;exitX=0.5;exitY=1;exitDx=0;exitDy=0;" edge="1" parent="1" source="zHZ-9GJpxGuvPAWi-_o6-6" target="zHZ-9GJpxGuvPAWi-_o6-6">
          <mxGeometry relative="1" as="geometry" />
        </mxCell>
        <mxCell id="zHZ-9GJpxGuvPAWi-_o6-11" value="MySql 8.0" style="text;html=1;align=center;verticalAlign=middle;whiteSpace=wrap;rounded=0;" vertex="1" parent="1">
          <mxGeometry x="190" y="230" width="60" height="30" as="geometry" />
        </mxCell>
        <mxCell id="zHZ-9GJpxGuvPAWi-_o6-12" value="" style="rounded=0;whiteSpace=wrap;html=1;" vertex="1" parent="1">
          <mxGeometry x="330" y="210" width="120" height="180" as="geometry" />
        </mxCell>
        <mxCell id="zHZ-9GJpxGuvPAWi-_o6-13" value="" style="endArrow=none;html=1;rounded=0;" edge="1" parent="1">
          <mxGeometry width="50" height="50" relative="1" as="geometry">
            <mxPoint x="170" y="460" as="sourcePoint" />
            <mxPoint x="170" y="390" as="targetPoint" />
          </mxGeometry>
        </mxCell>
        <mxCell id="zHZ-9GJpxGuvPAWi-_o6-14" value="Pablo Bellón" style="text;html=1;align=center;verticalAlign=middle;whiteSpace=wrap;rounded=0;" vertex="1" parent="1">
          <mxGeometry x="140" y="470" width="60" height="30" as="geometry" />
        </mxCell>
        <mxCell id="zHZ-9GJpxGuvPAWi-_o6-15" value="Pablo_Bellón" style="text;html=1;align=center;verticalAlign=middle;whiteSpace=wrap;rounded=0;" vertex="1" parent="1">
          <mxGeometry x="140" y="500" width="60" height="30" as="geometry" />
        </mxCell>
        <mxCell id="zHZ-9GJpxGuvPAWi-_o6-16" value="password" style="text;html=1;align=center;verticalAlign=middle;whiteSpace=wrap;rounded=0;" vertex="1" parent="1">
          <mxGeometry x="140" y="530" width="60" height="30" as="geometry" />
        </mxCell>
        <mxCell id="zHZ-9GJpxGuvPAWi-_o6-17" value="Web: 80" style="text;html=1;align=center;verticalAlign=middle;whiteSpace=wrap;rounded=0;" vertex="1" parent="1">
          <mxGeometry x="360" y="180" width="60" height="30" as="geometry" />
        </mxCell>
        <mxCell id="zHZ-9GJpxGuvPAWi-_o6-18" value="" style="rounded=0;whiteSpace=wrap;html=1;" vertex="1" parent="1">
          <mxGeometry x="340" y="230" width="100" height="130" as="geometry" />
        </mxCell>
        <mxCell id="zHZ-9GJpxGuvPAWi-_o6-19" value="Index.html" style="text;html=1;align=center;verticalAlign=middle;whiteSpace=wrap;rounded=0;" vertex="1" parent="1">
          <mxGeometry x="360" y="325" width="60" height="30" as="geometry" />
        </mxCell>
        <mxCell id="zHZ-9GJpxGuvPAWi-_o6-20" value="Docker compose: 3306" style="text;html=1;align=center;verticalAlign=middle;whiteSpace=wrap;rounded=0;" vertex="1" parent="1">
          <mxGeometry x="100" y="150" width="400" height="30" as="geometry" />
        </mxCell>
        <mxCell id="zHZ-9GJpxGuvPAWi-_o6-21" value="DESKTOP-6SU5E5U 16gb RAM - 1T&amp;nbsp;" style="text;html=1;align=left;verticalAlign=middle;whiteSpace=wrap;rounded=0;" vertex="1" parent="1">
          <mxGeometry x="70" y="20" width="470" height="30" as="geometry" />
        </mxCell>
      </root>
    </mxGraphModel>
  </diagram>
</mxfile>
